<svg width="60" height="60" viewBox="0 0 60 60" fill="none" xmlns="http://www.w3.org/2000/svg">
<path d="M32.5704 5C35.3829 5.0075 36.8104 5.0225 38.0429 5.0575L38.5279 5.075C39.0879 5.095 39.6404 5.12 40.3079 5.15C42.9679 5.275 44.7829 5.695 46.3754 6.3125C48.0254 6.9475 49.4154 7.8075 50.8054 9.195C52.0772 10.4443 53.0609 11.9562 53.6879 13.625C54.3054 15.2175 54.7254 17.0325 54.8504 19.695C54.8804 20.36 54.9054 20.9125 54.9254 21.475L54.9404 21.96C54.9779 23.19 54.9929 24.6175 54.9979 27.43L55.0004 29.295V32.57C55.0065 34.3935 54.9874 36.217 54.9429 38.04L54.9279 38.525C54.9079 39.0875 54.8829 39.64 54.8529 40.305C54.7279 42.9675 54.3029 44.78 53.6879 46.375C53.0609 48.0438 52.0772 49.5557 50.8054 50.805C49.5561 52.0767 48.0443 53.0605 46.3754 53.6875C44.7829 54.305 42.9679 54.725 40.3079 54.85L38.5279 54.925L38.0429 54.94C36.8104 54.975 35.3829 54.9925 32.5704 54.9975L30.7054 55H27.4329C25.6086 55.0064 23.7843 54.9873 21.9604 54.9425L21.4754 54.9275C20.882 54.905 20.2886 54.8792 19.6954 54.85C17.0354 54.725 15.2204 54.305 13.6254 53.6875C11.9575 53.0601 10.4466 52.0764 9.19795 50.805C7.92531 49.5559 6.94072 48.044 6.31295 46.375C5.69545 44.7825 5.27545 42.9675 5.15045 40.305L5.07545 38.525L5.06295 38.04C5.01686 36.217 4.99603 34.3935 5.00045 32.57V27.43C4.99353 25.6065 5.01186 23.783 5.05545 21.96L5.07295 21.475C5.09295 20.9125 5.11795 20.36 5.14795 19.695C5.27295 17.0325 5.69295 15.22 6.31045 13.625C6.93968 11.9555 7.926 10.4436 9.20045 9.195C10.4483 7.92387 11.9584 6.94018 13.6254 6.3125C15.2204 5.695 17.0329 5.275 19.6954 5.15C20.3604 5.12 20.9154 5.095 21.4754 5.075L21.9604 5.06C23.7834 5.01558 25.6069 4.99641 27.4304 5.0025L32.5704 5ZM30.0004 17.5C26.6852 17.5 23.5058 18.817 21.1616 21.1612C18.8174 23.5054 17.5004 26.6848 17.5004 30C17.5004 33.3152 18.8174 36.4946 21.1616 38.8388C23.5058 41.183 26.6852 42.5 30.0004 42.5C33.3157 42.5 36.4951 41.183 38.8393 38.8388C41.1835 36.4946 42.5004 33.3152 42.5004 30C42.5004 26.6848 41.1835 23.5054 38.8393 21.1612C36.4951 18.817 33.3157 17.5 30.0004 17.5ZM30.0004 22.5C30.9854 22.4998 31.9607 22.6937 32.8707 23.0704C33.7807 23.4472 34.6076 23.9995 35.3041 24.6958C36.0007 25.3921 36.5532 26.2188 36.9303 27.1287C37.3074 28.0386 37.5015 29.0138 37.5017 29.9988C37.5019 30.9837 37.308 31.959 36.9313 32.869C36.5545 33.779 36.0022 34.6059 35.3059 35.3024C34.6096 35.999 33.7829 36.5516 32.873 36.9286C31.9631 37.3057 30.9879 37.4998 30.0029 37.5C28.0138 37.5 26.1062 36.7098 24.6996 35.3033C23.2931 33.8968 22.5029 31.9891 22.5029 30C22.5029 28.0109 23.2931 26.1032 24.6996 24.6967C26.1062 23.2902 28.0138 22.5 30.0029 22.5M43.1279 13.75C42.2991 13.75 41.5043 14.0792 40.9182 14.6653C40.3322 15.2513 40.0029 16.0462 40.0029 16.875C40.0029 17.7038 40.3322 18.4987 40.9182 19.0847C41.5043 19.6708 42.2991 20 43.1279 20C43.9567 20 44.7516 19.6708 45.3377 19.0847C45.9237 18.4987 46.2529 17.7038 46.2529 16.875C46.2529 16.0462 45.9237 15.2513 45.3377 14.6653C44.7516 14.0792 43.9567 13.75 43.1279 13.75Z" fill="white"/>
</svg>
