<svg width="196" height="158" viewBox="0 0 196 158" fill="none" xmlns="http://www.w3.org/2000/svg">
<path d="M80.9522 18.0023C80.3597 15.6792 78.2088 14.0994 75.8166 14.2584C43.3511 16.4156 0.0248344 22.6761 0 75.1481V139C0 141.761 2.23858 144 5 144H68.1527C70.9141 144 73.1527 141.761 73.1527 139V75.3334C73.1527 72.572 70.9141 70.3334 68.1527 70.3334H53.4867C50.8765 70.3334 48.632 68.304 48.8954 65.7071C50.3566 51.2985 64.9307 46.2039 81.7645 42.7143C84.5901 42.1285 86.389 39.3199 85.6759 36.5236L80.9522 18.0023ZM178.96 18.0023C178.367 15.6792 176.216 14.0994 173.824 14.2584C141.359 16.4156 98.0323 22.6762 98.0076 75.1481V139C98.0076 141.761 100.246 144 103.008 144H166.16C168.922 144 171.16 141.761 171.16 139V75.3334C171.16 72.572 168.922 70.3334 166.16 70.3334H151.494C148.884 70.3334 146.64 68.3041 146.903 65.7072C148.364 51.2985 162.938 46.2039 179.772 42.7143C182.598 42.1285 184.397 39.3198 183.684 36.5236L178.96 18.0023Z" fill="black" fill-opacity="0.55"/>
</svg>
